<?xml version="1.0" standalone="no"?><!DOCTYPE svg PUBLIC "-//W3C//DTD SVG 1.1//EN" "http://www.w3.org/Graphics/SVG/1.1/DTD/svg11.dtd"><svg t="1480867082705" class="icon" style="" viewBox="0 0 1024 1024" version="1.1" xmlns="http://www.w3.org/2000/svg" p-id="3492" xmlns:xlink="http://www.w3.org/1999/xlink" width="200" height="200"><defs><style type="text/css"></style></defs><path d="M554.564267 599.8592c-18.875733-10.103467-35.157333-25.6-35.84-26.282667-2.423467-2.286933-3.9936-5.358933-4.437333-8.704-2.218667-17.578667 0.443733-30.4128 8.260267-39.287467 4.266667-4.846933 12.117333-10.683733 25.326933-10.683733 12.014933 0 22.903467 4.983467 24.098133 5.563733 6.075733 2.1504 19.831467 3.754667 35.7376 3.754667 3.822933 0 6.280533-0.1024 6.417067-0.1024 45.090133-0.034133 77.585067-20.206933 91.784533-31.0272l-17.373867-34.338133c-36.352 18.500267-68.164267 27.886933-94.583467 27.886933-41.233067 0-55.842133-22.459733-57.378133-24.9856-4.778667-9.557333-17.066667-33.6896-20.548267-40.482133-3.447467-3.3792-7.68-4.983467-13.2096-4.983467-11.298133 0-22.493867 6.485333-22.596267 6.587733-59.357867 33.655467-59.665067 139.741867-59.665067 140.8-8.328533 121.1392-116.872533 171.383467-157.149867 185.890133 4.949333 12.868267 13.7216 33.962667 22.664533 54.6816 117.316267-28.125867 194.525867-148.923733 195.310933-150.186667 3.959467-6.280533 12.014933-8.6016 18.670933-5.4272 104.072533 49.595733 150.903467 110.728533 168.413867 139.5712l40.96-31.163733C668.740267 667.409067 555.7248 600.576 554.564267 599.8592zM565.4528 350.856533c39.150933 0 71.031467-31.914667 71.031467-71.099733s-31.880533-71.0656-71.031467-71.0656c-39.185067 0-71.0656 31.880533-71.0656 71.0656S526.267733 350.856533 565.4528 350.856533zM512 0C229.239467 0 0 229.239467 0 512s229.239467 512 512 512 512-229.239467 512-512S794.760533 0 512 0zM565.4528 179.370667c55.296 0 100.283733 45.021867 100.283733 100.386133s-44.987733 100.386133-100.283733 100.386133c-55.330133 0-100.352-45.056-100.352-100.386133S510.122667 179.370667 565.4528 179.370667zM736.256 773.358933l-63.658667 48.401067c-3.584 2.730667-8.2944 3.618133-12.663467 2.491733-4.369067-1.194667-7.953067-4.334933-9.693867-8.533333-0.341333-0.7168-33.1776-75.332267-151.415467-135.236267-23.893333 33.757867-103.253333 133.632-218.7264 154.862933C279.210667 835.549867 278.3232 835.584 277.435733 835.584c-5.7344 0-11.0592-3.3792-13.448533-8.8064-33.655467-77.346133-33.655467-83.421867-33.655467-86.698667 0-6.724267 4.539733-12.5952 11.025067-14.2336 5.768533-1.467733 141.346133-37.512533 149.981867-163.2256-0.034133-3.959467 0.136533-123.221333 74.24-165.205333 1.501867-0.9216 18.090667-10.513067 37.2736-10.513067 14.609067 0 27.204267 5.597867 36.386133 16.213333 0.750933 0.887467 1.4336 1.877333 1.979733 2.9696 0 0 14.9504 29.354667 20.548267 40.516267 1.604267 1.979733 10.103467 10.752 32.187733 10.752 24.2688 0 56.7296-10.820267 93.866667-31.3344 3.4816-1.911467 7.5776-2.3552 11.400533-1.160533 3.7888 1.160533 6.9632 3.857067 8.738133 7.3728l29.2864 57.9584c2.8672 5.666133 1.774933 12.526933-2.696533 16.964267-1.911467 1.911467-47.104 46.250667-119.773867 46.2848-0.068267 0-2.901333 0.1024-7.099733 0.1024-13.994667 0-33.4848-1.024-47.069867-6.075733-2.730667-1.2288-8.157867-3.242667-12.765867-3.242667-1.672533 0-2.9696 0.273067-3.345067 0.7168-0.136533 0.1024-2.116267 2.4576-1.672533 10.9568 5.256533 4.573867 15.223467 12.5952 25.975467 18.363733 5.802667 3.413333 131.9936 77.9264 172.202667 182.135467C743.424 762.538667 741.4784 769.399467 736.256 773.358933z" p-id="3493" fill="#1296db"></path></svg>