<?xml version="1.0" standalone="no"?><!DOCTYPE svg PUBLIC "-//W3C//DTD SVG 1.1//EN" "http://www.w3.org/Graphics/SVG/1.1/DTD/svg11.dtd"><svg width="128" height="128" viewBox="0 0 128 128" version="1.1" xmlns="http://www.w3.org/2000/svg" xmlns:xlink="http://www.w3.org/1999/xlink"><defs><style type="text/css"><![CDATA[
@font-face { font-family: ifont; src: url("http://at.alicdn.com/t/font_1442373896_4754455.eot?#iefix") format("embedded-opentype"), url("http://at.alicdn.com/t/font_1442373896_4754455.woff") format("woff"), url("http://at.alicdn.com/t/font_1442373896_4754455.ttf") format("truetype"), url("http://at.alicdn.com/t/font_1442373896_4754455.svg#ifont") format("svg"); }

]]></style></defs><g class="transform-group"><g transform="scale(0.125, 0.125)"><path d="M512 0C229.228 0 0 229.228 0 512c0 282.772 229.228 512 512 512 282.772 0 512-229.228 512-512C1024 229.228 794.772 0 512 0zM512 985.417C250.542 985.417 38.583 773.45 38.583 512 38.583 250.542 250.542 38.583 512 38.583c261.45 0 473.432 211.959 473.432 473.417C985.432 773.45 773.45 985.417 512 985.417zM512 512m-279.72 0a279.72 279.72 0 1 0 559.44 0 279.72 279.72 0 1 0-559.44 0Z" fill="#0098FB"></path></g></g></svg>