<?xml version="1.0" standalone="no"?><!DOCTYPE svg PUBLIC "-//W3C//DTD SVG 1.1//EN" "http://www.w3.org/Graphics/SVG/1.1/DTD/svg11.dtd"><svg width="200" height="200" viewBox="0 0 200 200" version="1.1" xmlns="http://www.w3.org/2000/svg" xmlns:xlink="http://www.w3.org/1999/xlink"><defs><style type="text/css"><![CDATA[
@font-face { font-family: ifont; src: url("http://at.alicdn.com/t/font_1442373896_4754455.eot?#iefix") format("embedded-opentype"), url("http://at.alicdn.com/t/font_1442373896_4754455.woff") format("woff"), url("http://at.alicdn.com/t/font_1442373896_4754455.ttf") format("truetype"), url("http://at.alicdn.com/t/font_1442373896_4754455.svg#ifont") format("svg"); }

]]></style></defs><g class="transform-group"><g transform="scale(0.1953125, 0.1953125)"><path d="M512 15.668157C234.784314 15.668157 10.039216 240.413256 10.039216 517.628942 10.039216 794.844628 234.784314 1019.589726 512 1019.589726 789.215686 1019.589726 1013.960784 794.844628 1013.960784 517.628942 1013.960784 240.413256 789.215686 15.668157 512 15.668157L512 15.668157ZM491.691394 758.570119C490.295597 758.018911 489.135646 757.356602 487.860041 756.586424 396.130985 699.03662 281.765322 708.205411 233.694849 715.495139 221.621387 717.260941 210.823529 707.653126 210.823529 695.16847L210.823529 348.886974C210.823529 339.608158 216.86026 331.433912 225.567258 329.006879 257.036724 320.057059 286.642104 316.635483 313.92985 316.854455L311.489759 316.854455 315.555822 316.854455 315.555822 316.964481C404.493286 318.182312 468.584229 358.498025 491.921569 375.617775L491.691394 758.570119 491.691394 758.570119ZM813.176471 348.852108 813.176471 695.255193C813.176471 707.854298 802.350712 717.464405 790.242776 715.697985 742.057691 708.296712 627.403991 699.124702 535.45324 756.803696 534.405218 757.46516 533.241258 758.017638 532.078431 758.570119L532.193236 374.93083C563.73616 352.054756 664.187019 290.952983 798.390511 329.075096 807.120229 331.392916 813.176471 339.570031 813.176471 348.852108L813.176471 348.852108Z" fill="#9d55b8"></path></g></g></svg>