<?xml version="1.0" standalone="no"?><!DOCTYPE svg PUBLIC "-//W3C//DTD SVG 1.1//EN" "http://www.w3.org/Graphics/SVG/1.1/DTD/svg11.dtd"><svg width="200" height="200" viewBox="0 0 200 200" version="1.1" xmlns="http://www.w3.org/2000/svg" xmlns:xlink="http://www.w3.org/1999/xlink"><defs><style type="text/css"><![CDATA[
@font-face { font-family: ifont; src: url("http://at.alicdn.com/t/font_1442373896_4754455.eot?#iefix") format("embedded-opentype"), url("http://at.alicdn.com/t/font_1442373896_4754455.woff") format("woff"), url("http://at.alicdn.com/t/font_1442373896_4754455.ttf") format("truetype"), url("http://at.alicdn.com/t/font_1442373896_4754455.svg#ifont") format("svg"); }

]]></style></defs><g class="transform-group"><g transform="scale(0.1953125, 0.1953125)"><path d="M190.65 810.167c-41.069 0-70.529-33.561-70.529-79.66v-431.201c0-48.611 29.458-84.209 70.529-84.209h358.256c41.069 0 70.523 35.597 70.523 84.209v49.25c0 12.098-5.882 21.932-17.979 21.932s-21.934-13.795-21.934-25.887v-45.291c0-20.655-13.741-37.461-30.617-37.461h-354.293c-16.881 0-30.622 16.804-30.622 37.458v426.656c0 20.655 13.734 37.454 30.617 37.454h354.293c16.881 0 30.617-16.804 30.617-37.454v-49.255c0-12.091 5.876-21.934 17.979-21.934 12.091 0 21.932 9.841 21.932 21.934v49.255c0 48.606-29.465 84.209-70.527 84.209l-358.242-0.007zM749.043 670.898c-5.911 0-11.474-2.447-15.619-6.892-8.394-8.977-8.394-23.577 0.005-32.539l84.461-90.347c0.071-0.076 0.121-0.131 0.048-0.303s-0.147-0.17-0.246-0.17h-367.318c-12.091 0-21.932-10.382-21.932-23.152s9.841-23.155 21.932-23.155h367.313c0.095 0 0.175 0 0.244-0.164 0.079-0.164 0.007-0.229-0.050-0.294l-84.465-90.341c-8.382-8.977-8.382-23.577 0-32.544 4.155-4.447 9.706-6.892 15.619-6.892s11.463 2.447 15.619 6.892l120.853 129.286c4.234 4.549 6.412 10.655 6.155 17.209 0.257 6.564-1.922 12.669-6.145 17.214l-120.865 129.296c-4.145 4.441-9.695 6.892-15.614 6.892v0z" fill="#56abe4"></path></g></g></svg>