<?xml version="1.0" standalone="no"?><!DOCTYPE svg PUBLIC "-//W3C//DTD SVG 1.1//EN" "http://www.w3.org/Graphics/SVG/1.1/DTD/svg11.dtd"><svg width="200" height="200" viewBox="0 0 200 200" version="1.1" xmlns="http://www.w3.org/2000/svg" xmlns:xlink="http://www.w3.org/1999/xlink"><defs><style type="text/css"><![CDATA[
@font-face { font-family: ifont; src: url("http://at.alicdn.com/t/font_1442373896_4754455.eot?#iefix") format("embedded-opentype"), url("http://at.alicdn.com/t/font_1442373896_4754455.woff") format("woff"), url("http://at.alicdn.com/t/font_1442373896_4754455.ttf") format("truetype"), url("http://at.alicdn.com/t/font_1442373896_4754455.svg#ifont") format("svg"); }

]]></style></defs><g class="transform-group"><g transform="scale(0.1953125, 0.1953125)"><path d="M524.20702 673.555489c-11.818163-9.965979-29.410843-8.331759-39.268352 3.431146L364.759541 820.176848c-56.863079 67.809385-148.309814 85.128843-203.89069 38.505989-55.526641-46.62183-54.301743-139.865491 2.723018-207.839629l120.013351-142.970202c9.912767-11.792581 8.388041-29.384237-3.430122-39.268352-11.819187-9.912767-29.356608-8.333806-39.269375 3.430122L120.865765 615.007025c-76.769454 91.556229-74.91727 220.039485 4.166903 286.376333 31.398104 26.362414 70.287833 38.997176 110.563118 38.997176 61.245899 0 125.679397-29.247114 171.892929-84.367503l120.149451-143.188166C537.550932 701.005678 535.998577 683.468257 524.20702 673.555489L524.20702 673.555489zM943.91708 185.05674c-21.459754-46.076408-62.472843-79.43619-115.521037-93.870947C777.089517 77.216639 720.335932 82.689281 668.813488 106.764606l-170.476673 79.464843c-13.942547 6.509251-19.98824 23.092951-13.481036 37.064151 6.509251 13.916964 23.147186 19.98824 37.064151 13.481036l170.421414-79.464843c39.596833-18.436908 82.622766-22.847357 121.403001-12.30935 36.928051 10.048867 65.194838 32.651654 79.627549 63.6169 14.487969 31.072693 13.671371 67.237357-2.231831 101.877295-16.721847 36.246529-47.821145 66.420759-87.580684 84.965114l-170.966836 79.627549c-13.996782 6.509251-20.042475 23.092951-13.506619 37.064151 4.738931 10.130731 14.759145 16.095583 25.27157 16.095583 3.976568 0 7.952112-0.844228 11.764951-2.614547l170.966836-79.627549c51.741431-24.100908 92.481298-63.943334 114.703415-112.199385C964.667683 284.049335 965.430046 231.217059 943.91708 185.05674L943.91708 185.05674zM395.672598 296.938899c4.904707 14.193257 10.43056 13.754259 12.180414-1.438769l17.903765-155.411559c1.725294-14.976086-9.120728-26.057469-24.282033-24.266683l-38.270629 4.52199c-15.269775 1.804089-23.417339 14.915711-18.439978 29.314653L395.672598 296.938899 395.672598 296.938899zM155.103544 238.490719l150.269445 54.203506c14.481829 5.222955 17.97949 0.682545 7.346315-10.311857L208.458729 174.585247c-10.751878-11.117199-27.260877-10.117428-37.138852 1.959631L146.388045 207.030194C136.439462 219.193211 140.41296 233.191016 155.103544 238.490719L155.103544 238.490719zM156.260903 424.556439l151.513786-37.230949c14.602579-3.587712 14.378475-8.619308-0.969071-11.123338l-150.480246-24.542976c-15.516392-2.529613-27.656897 7.78429-27.494191 22.978341l0.313132 28.997428C129.307018 418.748153 141.448546 428.195316 156.260903 424.556439L156.260903 424.556439zM401.497257 578.295915c5.337565 4.793166 12.037151 7.188726 18.708084 7.188726 7.598049 0 15.169491-3.104711 20.670785-9.149381l204.354248-225.78535c10.293437-11.410887 9.422603-29.05678-1.960655-39.378869-11.329023-10.293437-29.031197-9.450233-39.433104 1.960655L399.535579 538.891464C389.186883 550.301328 390.086369 567.94722 401.497257 578.295915L401.497257 578.295915z" fill="#56abe4"></path></g></g></svg>