<?xml version="1.0" standalone="no"?><!DOCTYPE svg PUBLIC "-//W3C//DTD SVG 1.1//EN" "http://www.w3.org/Graphics/SVG/1.1/DTD/svg11.dtd"><svg width="200" height="200" viewBox="0 0 200 200" version="1.1" xmlns="http://www.w3.org/2000/svg" xmlns:xlink="http://www.w3.org/1999/xlink"><defs><style type="text/css"><![CDATA[
@font-face { font-family: ifont; src: url("http://at.alicdn.com/t/font_1442373896_4754455.eot?#iefix") format("embedded-opentype"), url("http://at.alicdn.com/t/font_1442373896_4754455.woff") format("woff"), url("http://at.alicdn.com/t/font_1442373896_4754455.ttf") format("truetype"), url("http://at.alicdn.com/t/font_1442373896_4754455.svg#ifont") format("svg"); }

]]></style></defs><g class="transform-group"><g transform="scale(0.1953125, 0.1953125)"><path d="M934.1312 266.5088c3.0848 5.9264 5.696 12.5312 7.6416 19.1744C945.5488 297.2544 947.2 310.0544 947.2 322.3552l0 532.8768c0 34.0608-13.5296 65.0496-36.3264 87.7824-22.7968 22.4512-54.1568 36.1856-88.6016 36.1856L201.984 979.2c-34.432 0-65.792-13.7344-88.1152-36.1856C91.072 920.2688 76.8 889.2928 76.8 855.2192L76.8 322.3552c0-34.0736 14.272-65.5488 37.0688-88.256 22.3232-22.5024 53.6704-36.2112 88.1152-36.2112l301.8368 0c10.6624-34.0864 29.9136-64.8192 54.1312-88.7168l1.4464-1.4336C598.7968 68.928 653.9136 44.8 713.7536 44.8c60.8128 0 115.904 24.6016 155.8144 64.3712l0 0c39.8592 39.2448 64.576 94.3872 64.576 154.4704L934.1312 266.5088 934.1312 266.5088zM713.7536 158.144 713.7536 158.144c29.6832 0 56.7936 12.032 76.4928 31.2064 19.4688 19.8784 31.3344 46.8736 31.3344 76.1984 0 29.5808-11.8784 56.7936-31.3344 75.9424-19.6992 19.648-46.784 31.4752-76.4928 31.4752-29.44 0-56.7552-11.8272-75.9936-31.4752-19.712-19.1488-31.8208-46.3616-31.8208-75.9424 0-29.3248 12.1088-56.32 31.8208-76.1984C656.9984 170.2016 684.3136 158.144 713.7536 158.144L713.7536 158.144zM761.7152 217.7792 761.7152 217.7792c-12.3392-12.0448-29.44-19.6608-47.9616-19.6608-18.496 0-35.5968 7.616-47.5008 19.6608-12.3392 12.3136-20.1856 28.864-20.1856 47.7952 0 18.7008 7.8464 35.4688 20.1856 47.552 11.904 12.3136 29.0048 20.1216 47.5008 20.1216 18.5216 0 35.6224-7.808 47.9616-20.1216 12.3648-12.0832 19.7248-28.8512 19.7248-47.552C781.44 246.6432 774.08 230.0928 761.7152 217.7792L761.7152 217.7792zM493.8624 264.64 493.8624 264.64 201.984 264.64c-15.936 0-30.4 6.1312-41.1008 17.0368-10.432 9.9328-17.1008 24.8192-17.1008 40.6912l0 532.864c0 15.6032 6.6688 30.0672 17.1008 40.704 10.688 10.4064 25.1648 17.0368 41.1008 17.0368l620.288 0c15.9104 0 30.656-6.6304 41.1008-17.0368 10.4448-10.6368 17.1008-25.1008 17.1008-40.704L880.4736 407.552c-22.7968 26.0096-51.5328 46.848-84.0832 59.8656l-66.944 82.0864c-7.1424 8.512-19.4816 9.472-28.0064 2.624-1.4464-0.7552-2.3936-1.6768-3.328-2.624l0 0-0.2688-0.448-66.7392-81.6384c-39.8592-16.32-74.0992-43.3024-98.5344-78.7712C508.1088 353.3696 493.8624 310.528 493.8624 264.64L493.8624 264.64zM841.0368 137.1008 841.0368 137.1008c-32.2816-32.4224-77.4144-52.288-127.2832-52.288-48.896 0-94.0544 19.3792-126.336 51.328l-0.9472 0.96c-32.5248 32.6528-52.7232 77.8368-52.7232 126.5792 0 38.336 11.904 73.3568 31.808 102.208 20.9152 30.2848 50.3808 53.4912 84.7872 66.2784 3.5712 1.1648 6.1824 3.3152 8.7936 5.9008l54.6432 67.2 55.104-66.7392c1.8944-2.5728 4.7616-5.1968 8.3072-6.3616 34.688-12.7872 64.3328-35.9936 84.7616-66.2784 20.4416-28.8512 32.3072-63.872 32.3072-102.208C894.2336 214.9376 873.5872 169.7536 841.0368 137.1008L841.0368 137.1008 841.0368 137.1008 841.0368 137.1008zM577.92 516.6208 577.92 516.6208c7.5776-7.7952 20.4032-7.7952 28.2496 0 7.808 7.7824 7.808 20.5696 0 28.4032l-55.3472 55.1296 114.9312 114.5088 128.2688-127.7696c7.6032-7.7952 20.4288-7.7952 28.2496 0 7.8336 8.064 7.8336 20.5952 0 28.16l-127.9872 128.0128 42.944 42.5984c7.8464 8.0256 7.8464 20.5696 0 28.3776-7.808 8.0512-20.6336 8.0512-28.4928 0l-55.7824-56.2944-0.7552 0-0.2304-0.4608-0.4864-0.256-0.2432-0.4864-0.4608-0.2432-0.2432-0.2304-127.7696-127.552L291.9552 858.0608c-7.6032 7.5648-20.4288 7.5648-28.4928 0-7.6288-7.6032-7.6288-20.8256 0-28.1472l230.8352-229.76-95.0016-94.656L244.9152 659.072c-7.5904 7.7696-20.6464 7.7696-28.4928 0-7.6032-7.7952-7.6032-20.5952 0-28.4288l154.3808-153.536-97.856-97.2928c-8.064-8.256-8.064-20.5568 0-28.3776 7.8336-7.808 20.4032-7.808 28.4928 0l111.168 110.4896 0.2432 0.4992 0.2304 0.4608 0.4864 0.4864 0.4608 0.448 108.7872 108.3648L577.92 516.6208 577.92 516.6208z" fill="#11cd6e"></path></g></g></svg>