<?xml version="1.0" standalone="no"?><!DOCTYPE svg PUBLIC "-//W3C//DTD SVG 1.1//EN" "http://www.w3.org/Graphics/SVG/1.1/DTD/svg11.dtd"><svg width="200" height="200" viewBox="0 0 200 200" version="1.1" xmlns="http://www.w3.org/2000/svg" xmlns:xlink="http://www.w3.org/1999/xlink"><defs><style type="text/css"><![CDATA[
@font-face { font-family: ifont; src: url("http://at.alicdn.com/t/font_1442373896_4754455.eot?#iefix") format("embedded-opentype"), url("http://at.alicdn.com/t/font_1442373896_4754455.woff") format("woff"), url("http://at.alicdn.com/t/font_1442373896_4754455.ttf") format("truetype"), url("http://at.alicdn.com/t/font_1442373896_4754455.svg#ifont") format("svg"); }

]]></style></defs><g class="transform-group"><g transform="scale(0.1953125, 0.1953125)"><path d="M511.999488 394.08852c-65.117067 0-117.912503 52.780087-117.912503 117.912503 0 65.13037 52.795437 117.91148 117.912503 117.91148s117.912503-52.780087 117.912503-117.91148C629.910968 446.868607 577.116555 394.08852 511.999488 394.08852zM511.999488 64.304562c-247.251244 0-447.696462 200.443172-447.696462 447.696462 0 247.251244 200.445218 447.695438 447.696462 447.695438s447.696462-200.444195 447.696462-447.695438C959.69595 264.747733 759.250732 64.304562 511.999488 64.304562zM566.965357 875.200022l-54.965869-109.903086L457.01827 875.206162c-158.397566-23.768333-283.700387-148.679227-308.045865-306.887482l112.608707-56.317657L148.972405 455.68132C173.266717 297.810756 298.082444 173.077917 455.999057 148.929938l56.000432 111.946628 55.983036-111.940488c157.940149 24.165376 282.780435 148.921751 307.055305 306.811758L762.561128 512l112.475677 56.251142C850.71077 726.478839 725.38339 851.415316 566.965357 875.200022z" fill="#56abe4"></path></g></g></svg>