<?xml version="1.0" standalone="no"?><!DOCTYPE svg PUBLIC "-//W3C//DTD SVG 1.1//EN" "http://www.w3.org/Graphics/SVG/1.1/DTD/svg11.dtd"><svg width="200" height="200" viewBox="0 0 200 200" version="1.1" xmlns="http://www.w3.org/2000/svg" xmlns:xlink="http://www.w3.org/1999/xlink"><defs><style type="text/css"><![CDATA[
@font-face { font-family: ifont; src: url("http://at.alicdn.com/t/font_1442373896_4754455.eot?#iefix") format("embedded-opentype"), url("http://at.alicdn.com/t/font_1442373896_4754455.woff") format("woff"), url("http://at.alicdn.com/t/font_1442373896_4754455.ttf") format("truetype"), url("http://at.alicdn.com/t/font_1442373896_4754455.svg#ifont") format("svg"); }

]]></style></defs><g class="transform-group"><g transform="scale(0.1953125, 0.1953125)"><path d="M702.895213 383.248637c0 105.114013-85.21173 190.32472-190.323697 190.32472-105.115036 0-190.325743-85.21173-190.325743-190.32472s85.21173-190.32472 190.325743-190.32472C617.682459 192.923918 702.895213 278.134625 702.895213 383.248637zM512.56947 242.010893c-78.004585 0-141.237745 63.234183-141.237745 141.237745s63.23316 141.237745 141.237745 141.237745c78.003562 0 141.236722-63.234183 141.236722-141.237745S590.573031 242.010893 512.56947 242.010893zM909.214209 396.678508c0 219.060181-397.789819 627.321492-397.789819 627.321492S115.925754 615.738689 115.925754 396.678508c0-219.061205 177.583534-396.644739 396.644739-396.644739C731.630674 0.033769 909.214209 177.617303 909.214209 396.678508zM512.56947 51.348482c-191.93438 0-347.528088 155.593707-347.528088 347.528088 0 191.933357 347.157651 549.640272 347.157651 549.640272s347.897501-357.706915 347.897501-549.640272C860.097558 206.942189 704.50385 51.348482 512.56947 51.348482z" fill="#fff"></path></g></g></svg>