<?xml version="1.0" standalone="no"?><!DOCTYPE svg PUBLIC "-//W3C//DTD SVG 1.1//EN" "http://www.w3.org/Graphics/SVG/1.1/DTD/svg11.dtd"><svg width="200" height="200" viewBox="0 0 200 200" version="1.1" xmlns="http://www.w3.org/2000/svg" xmlns:xlink="http://www.w3.org/1999/xlink"><defs><style type="text/css"><![CDATA[
@font-face { font-family: ifont; src: url("http://at.alicdn.com/t/font_1442373896_4754455.eot?#iefix") format("embedded-opentype"), url("http://at.alicdn.com/t/font_1442373896_4754455.woff") format("woff"), url("http://at.alicdn.com/t/font_1442373896_4754455.ttf") format("truetype"), url("http://at.alicdn.com/t/font_1442373896_4754455.svg#ifont") format("svg"); }

]]></style></defs><g class="transform-group"><g transform="scale(0.1953125, 0.1953125)"><path d="M512.005 0C347.513 0 213.699 133.815 213.699 298.308c0 119.124 70.347 221.862 171.534 269.637C198.164 622.884 61.069 795.833 61.069 1000.436c0 13.026 10.552 23.564 23.563 23.564 13.014 0 23.566-10.538 23.566-23.564 0-222.666 181.164-403.817 403.807-403.817 164.491 0 298.312-133.818 298.312-298.311S676.496 0 512.005 0zM512.005 549.487c-138.509 0-251.177-112.682-251.177-251.182 0-138.498 112.668-251.177 251.177-251.177 138.513 0 251.183 112.679 251.183 251.177C763.189 436.807 650.518 549.487 512.005 549.487zM785.529 641.88c-10.355-7.892-25.131-5.937-33.021 4.419-7.914 10.353-5.938 25.128 4.418 33.044 100.979 77.163 158.877 194.202 158.877 321.091 0 13.027 10.561 23.564 23.564 23.564 13.023 0 23.564-10.537 23.564-23.564C962.932 858.728 898.27 728.037 785.529 641.88z" fill="#272636"></path></g></g></svg>