<?xml version="1.0" standalone="no"?><!DOCTYPE svg PUBLIC "-//W3C//DTD SVG 1.1//EN" "http://www.w3.org/Graphics/SVG/1.1/DTD/svg11.dtd"><svg t="1482475260977" class="icon" style="" viewBox="0 0 1024 1024" version="1.1" xmlns="http://www.w3.org/2000/svg" p-id="2004" xmlns:xlink="http://www.w3.org/1999/xlink" width="200" height="200"><defs><style type="text/css"></style></defs><path d="M512.026095 63.792908c-247.574519 0-448.237737 200.665229-448.237737 448.208115 0 247.521396 200.662194 448.208115 448.237737 448.208115 247.531538 0 448.182476-200.686718 448.182476-448.208115C960.208571 264.457114 759.557634 63.792908 512.026095 63.792908zM580.574046 726.235292c0 6.15007-2.101957 12.320607-6.302801 17.004279-4.201867 4.683672-9.717714 7.04751-15.23356 7.04751l-74.543748 0c-5.515846 0-11.030669-2.363837-15.188533-7.04751-4.201867-4.706185-6.303824-10.854209-6.303824-17.004279l0-40.071647c0-6.15007 2.100934-12.300141 6.303824-17.005302 4.201867-4.705162 9.67371-7.046486 15.188533-7.046486l74.543748 0c5.515846 0 11.030669 2.341325 15.23356 7.046486 4.200844 4.706185 6.302801 10.855232 6.302801 17.005302L580.574046 726.235292zM574.270222 594.770122c-4.201867 3.151783-9.717714 4.727675-15.23356 4.706185l-74.105755-0.26299c-5.471842-0.021489-10.942662-1.598404-15.101548-4.726651-4.201867-3.130294-6.25982-7.222495-6.303824-11.31572l-0.480974-113.189945 0-177.707354c0-4.114714 2.100934-8.229428 6.25982-11.380188 4.201867-3.151783 9.717714-4.727675 15.188533-4.727675l74.500767 0c5.514823 0 10.985642 1.575892 15.188533 4.727675s6.302801 7.266497 6.302801 11.380188l0 176.415942 0.132012 114.677832C580.61805 587.504648 578.516093 591.640852 574.270222 594.770122z" p-id="2005" fill="#d81e06"></path></svg>