<?xml version="1.0" standalone="no"?><!DOCTYPE svg PUBLIC "-//W3C//DTD SVG 1.1//EN" "http://www.w3.org/Graphics/SVG/1.1/DTD/svg11.dtd"><svg width="200" height="200" viewBox="0 0 200 200" version="1.1" xmlns="http://www.w3.org/2000/svg" xmlns:xlink="http://www.w3.org/1999/xlink"><defs><style type="text/css"><![CDATA[
@font-face { font-family: ifont; src: url("http://at.alicdn.com/t/font_1442373896_4754455.eot?#iefix") format("embedded-opentype"), url("http://at.alicdn.com/t/font_1442373896_4754455.woff") format("woff"), url("http://at.alicdn.com/t/font_1442373896_4754455.ttf") format("truetype"), url("http://at.alicdn.com/t/font_1442373896_4754455.svg#ifont") format("svg"); }

]]></style></defs><g class="transform-group"><g transform="scale(0.1953125, 0.1953125)"><path d="M949.46954 424.847058c-4.840238-25.463951-20.082384-41.964764-38.736233-41.424458l-3.942799 0c-64.021106 0-116.203582-52.187593-116.203582-116.203582 0-21.158902 10.038634-44.294832 10.038634-44.473911 9.863648-22.237467 2.334161-49.673329-17.751293-63.482847l-1.078565-0.718361L670.078295 96.497775l-1.257643-0.538259c-6.635117-2.868327-13.805424-4.301979-21.518083-4.301979-15.960507 0-31.561833 6.27696-41.784662 17.033955-13.446243 13.809517-56.487525 50.390667-91.276866 50.390667-34.969443 0-78.365812-37.299511-91.992157-51.644217-10.222829-10.761088-26.004257-17.217127-42.143842-17.217127-7.53358 0-14.702863 1.435699-21.158902 4.124947l-1.25662 0.538259-115.486244 63.478753-1.076518 0.719384c-20.082384 13.989619-27.615964 41.24538-17.752316 63.482847 0.179079 0.179079 10.04375 23.313985 10.04375 44.473911 0 64.021106-52.187593 116.202559-116.208699 116.202559l-3.942799 0c-18.649755-0.35918-33.891901 15.96153-38.73521 41.605583-0.360204 1.970888-9.325389 49.852408-9.325389 87.511099 0 37.659715 8.965186 85.541235 9.325389 87.511099 4.843308 25.285896 19.726274 41.605583 38.017872 41.605583l0.718361 0 3.942799 0c64.021106 0 116.208699 52.182476 116.208699 116.203582 0 21.159926-10.04375 44.294832-10.04375 44.473911-9.863648 22.236444-2.330068 49.493228 17.571191 63.482847l1.078565 0.713244 109.567441 61.331857 1.078565 0.539282c6.635117 2.868327 13.805424 4.299933 21.518083 4.299933 16.139585 0 31.740912-6.631024 41.964764-17.751293 12.907984-13.985526 57.560974-53.7993 93.427856-53.7993 36.042891 0 80.156598 39.633672 93.967138 54.876842 10.222829 11.295254 26.002211 17.931395 42.322921 17.931395 7.529487 0 14.702863-1.432629 21.159926-4.306072l1.252527-0.534166 113.514333-62.764486 1.078565-0.718361c20.085454-13.988596 27.614941-41.246403 17.751293-63.482847-0.179079-0.179079-10.038634-23.315008-10.038634-44.473911 0-64.021106 52.182476-116.203582 116.203582-116.203582l3.942799 0c18.653849 0.35918 33.895995-15.960507 38.736233-41.605583 0.35918-1.969864 9.324366-49.851385 9.324366-87.511099C958.793906 474.699466 949.82872 426.998047 949.46954 424.847058zM509.939061 730.72556c-120.739898 0-218.904639-98.165764-218.904639-218.906685 0-120.740922 98.16474-218.904639 218.904639-218.904639 120.740922 0 218.906685 98.16474 218.906685 218.904639C728.844723 632.559796 630.67896 730.72556 509.939061 730.72556zM509.939061 409.780921 509.939061 409.780921c-56.308447 0-102.038978 45.730531-102.038978 102.038978 0 56.308447 45.730531 102.040001 102.038978 102.040001 56.30947 0 102.034884-45.731554 102.034884-102.040001C612.154048 455.511451 566.247508 409.780921 509.939061 409.780921L509.939061 409.780921 509.939061 409.780921zM509.939061 409.780921" fill="#56abe4"></path></g></g></svg>