<?xml version="1.0" standalone="no"?><!DOCTYPE svg PUBLIC "-//W3C//DTD SVG 1.1//EN" "http://www.w3.org/Graphics/SVG/1.1/DTD/svg11.dtd"><svg width="200" height="200" viewBox="0 0 200 200" version="1.1" xmlns="http://www.w3.org/2000/svg" xmlns:xlink="http://www.w3.org/1999/xlink"><defs><style type="text/css"><![CDATA[
@font-face { font-family: ifont; src: url("http://at.alicdn.com/t/font_1442373896_4754455.eot?#iefix") format("embedded-opentype"), url("http://at.alicdn.com/t/font_1442373896_4754455.woff") format("woff"), url("http://at.alicdn.com/t/font_1442373896_4754455.ttf") format("truetype"), url("http://at.alicdn.com/t/font_1442373896_4754455.svg#ifont") format("svg"); }

]]></style></defs><g class="transform-group"><g transform="scale(0.1953125, 0.1953125)"><path d="M539.40224 194.19136m-131.47136 0a12.839 12.839 0 1 0 262.94272 0 12.839 12.839 0 1 0-262.94272 0ZM430.19264 411.93472c-9.74848 32-11.63264 65.83296-18.7904 130.77504-4.17792 59.136-12.288 101.46816-19.70176 138.1888-17.16224 121.98912-82.55488 110.848-159.52896 204.01152-69.09952 77.96736 6.03136 136.41728 58.89024 104.40704 87.1936-90.46016 179.47648-154.42944 190.76096-193.3824 127.52896 25.09824 147.32288 178.00192 200.18176 200.32512 52.86912 22.33344 94.6176-22.26176 69.71392-84.69504C682.00448 777.8304 624.95744 755.56864 512.27648 711.04512c9.78944-53.30944 12.14464-69.12 13.60896-104.87808 70.95296 8.87808 166.32832-1.73056 227.55328-53.31968 27.82208-25.84576 18.56512-106.12736-44.53376-78.29504-33.65888 20.6336-53.51424 24.59648-78.37696 34.77504-23.6544 5.65248-40.21248 15.40096-97.3824-4.18816 3.71712-37.55008 4.93568-44.65664 3.95264-86.58944C535.92064 368.80384 460.78976 322.88768 430.19264 411.93472z" fill="#9d55b8"></path></g></g></svg>