<?xml version="1.0" standalone="no"?><!DOCTYPE svg PUBLIC "-//W3C//DTD SVG 1.1//EN" "http://www.w3.org/Graphics/SVG/1.1/DTD/svg11.dtd"><svg width="200" height="200" viewBox="0 0 200 200" version="1.1" xmlns="http://www.w3.org/2000/svg" xmlns:xlink="http://www.w3.org/1999/xlink"><defs><style type="text/css"><![CDATA[
@font-face { font-family: ifont; src: url("http://at.alicdn.com/t/font_1442373896_4754455.eot?#iefix") format("embedded-opentype"), url("http://at.alicdn.com/t/font_1442373896_4754455.woff") format("woff"), url("http://at.alicdn.com/t/font_1442373896_4754455.ttf") format("truetype"), url("http://at.alicdn.com/t/font_1442373896_4754455.svg#ifont") format("svg"); }

]]></style></defs><g class="transform-group"><g transform="scale(0.1953125, 0.1953125)"><path d="M515.239787 46.529733c-246.710938 0-446.708971 199.998033-446.708971 446.709995 0 246.710938 199.998033 446.708971 446.708971 446.708971 246.711961 0 446.709995-199.998033 446.709995-446.708971S761.951749 46.529733 515.239787 46.529733zM542.867008 321.976132c26.033933-44.603871 45.467541-76.555583 72.836889-120.380718 10.429537-15.369036 22.710234-9.537214 30.810726-4.00829 4.713348 2.365884 17.925255 12.407588 32.080649 22.991644-29.629831 49.749054-58.666144 98.498338-88.455611 148.513452-14.826684-8.513908-26.934442-16.099676-38.866193-23.203468C539.405163 338.821799 539.979238 326.922794 542.867008 321.976132zM317.634244 735.966934c-14.804171-8.450463-16.919345-18.789948-7.617491-33.464159 16.07307-25.355481 30.747281-51.593052 46.292326-77.288271 28.992311-47.922453 20.949124-57.156768 81.8471-16.406668 0.548492 0.366344 0.754177 1.24741 2.428306 4.176113-28.478612 47.804772-56.80475 95.349625-86.114287 144.547117C340.746638 749.483786 329.260026 742.604098 317.634244 735.966934zM721.620182 372.064924C697.691189 498.217089 634.886795 603.692329 546.869159 694.972265c-33.378202 34.615379-73.066109 61.058634-121.495098 69.818135-16.521279 2.988054-34.037211 0.473791-56.478316 0.473791 30.924313-52.046377 57.625442-97.318466 84.905762-142.238538 2.118244-3.487428 8.328689-4.455475 12.590759-6.684236 11.526521-6.02932 27.491121-9.146311 33.799804-18.655895 35.245735-53.131081 68.789713-107.437941 101.285824-162.306596 5.968945-10.077519 10.127661-27.847232 5.228071-36.390815-10.815323-18.854417-2.034333-30.766724 6.601348-44.705178 8.719592-14.075577 17.010419-28.41926 25.498744-42.640146 15.611559-26.152637 31.230282-52.30118 48.529273-81.270978 7.245008 9.91379 12.149714 16.585747 16.545838 23.149233 9.43386 14.080693 20.411889 34.664497 21.892613 58.634422C726.892255 322.767148 724.644051 356.124883 721.620182 372.064924z" fill="#a9b7b7"></path></g></g></svg>