<?xml version="1.0" standalone="no"?><!DOCTYPE svg PUBLIC "-//W3C//DTD SVG 1.1//EN" "http://www.w3.org/Graphics/SVG/1.1/DTD/svg11.dtd"><svg width="200" height="200" viewBox="0 0 200 200" version="1.1" xmlns="http://www.w3.org/2000/svg" xmlns:xlink="http://www.w3.org/1999/xlink"><defs><style type="text/css"><![CDATA[
@font-face { font-family: ifont; src: url("http://at.alicdn.com/t/font_1442373896_4754455.eot?#iefix") format("embedded-opentype"), url("http://at.alicdn.com/t/font_1442373896_4754455.woff") format("woff"), url("http://at.alicdn.com/t/font_1442373896_4754455.ttf") format("truetype"), url("http://at.alicdn.com/t/font_1442373896_4754455.svg#ifont") format("svg"); }

]]></style></defs><g class="transform-group"><g transform="scale(0.1953125, 0.1953125)"><path d="M151.262052 377.270483c-12.145621 0-22.017456 9.873882-22.017456 22.019503 0 12.133342 9.871835 22.005176 22.017456 22.005176s22.017456-9.871835 22.017456-22.005176C173.279508 387.144364 163.407674 377.270483 151.262052 377.270483zM933.004543 517.728468c-16.127306-1.390673-30.362518 10.622942-31.753191 26.764574-11.210319 131.341351-92.320639 247.487627-211.663724 303.123762-168.352289 78.450746-366.119515 18.114566-464.526779-133.461641L225.060849 312.490084c37.202297-57.382918 89.514733-103.559611 153.031349-133.165906 119.357412-55.593156 260.446777-43.063795 368.221386 32.785707 4.013407 2.824325 7.970532 5.748934 11.883655 8.729825 4.429893 3.397377 8.788154 6.895037 13.059434 10.465352 41.243333 34.663474 73.78447 77.196173 96.736205 126.424364 17.217127 36.956703 28.14092 76.05007 32.483832 116.189256 1.734504 16.112979 16.170285 27.824719 32.340569 26.03291 16.112979-1.734504 27.78174-16.213263 26.03291-32.340569-5.031597-46.561455-17.689894-91.876524-37.645388-134.681422-26.578332-57.05546-64.322981-106.369609-112.203478-146.594753-4.945639-4.157693-9.991562-8.199753-15.110139-12.113899-4.51585-3.469008-9.103332-6.823406-13.762445-10.120498C655.18305 76.209706 491.630067 61.60201 353.292372 126.111233c-69.222571 32.261775-126.896108 81.547271-169.434947 142.568043-5.554506-2.550079-10.984169-4.637624-15.948227-6.128581l-29.868261 0c-40.234353 0-72.851215 46.258557-72.851215 103.319134L65.189721 661.069107c0 57.062624 32.616862 103.32118 72.851215 103.32118l50.108235 0c81.32112 112.110357 211.43041 176.435385 346.343099 176.435385 60.352553 0 121.679293-12.858866 179.896206-39.995923 138.352021-64.48057 232.378511-199.10571 245.38064-351.34809C961.145463 533.324678 949.161524 519.119141 933.004543 517.728468zM151.262052 476.092185c-7.109931 0-12.896728-5.782703-12.896728-12.891611 0-7.109931 5.785773-12.896728 12.896728-12.896728s12.896728 5.785773 12.896728 12.896728C164.15878 470.309482 158.373007 476.092185 151.262052 476.092185zM151.262052 433.745728c-19.003819 0-34.468023-15.45397-34.468023-34.455743 0-19.003819 15.464203-34.468023 34.468023-34.468023s34.468023 15.464203 34.468023 34.468023C185.730075 418.291758 170.265872 433.745728 151.262052 433.745728z" fill="#56abe4"></path></g></g></svg>