<?xml version="1.0" standalone="no"?><!DOCTYPE svg PUBLIC "-//W3C//DTD SVG 1.1//EN" "http://www.w3.org/Graphics/SVG/1.1/DTD/svg11.dtd"><svg width="200" height="200" viewBox="0 0 200 200" version="1.1" xmlns="http://www.w3.org/2000/svg" xmlns:xlink="http://www.w3.org/1999/xlink"><defs><style type="text/css"><![CDATA[
@font-face { font-family: ifont; src: url("http://at.alicdn.com/t/font_1442373896_4754455.eot?#iefix") format("embedded-opentype"), url("http://at.alicdn.com/t/font_1442373896_4754455.woff") format("woff"), url("http://at.alicdn.com/t/font_1442373896_4754455.ttf") format("truetype"), url("http://at.alicdn.com/t/font_1442373896_4754455.svg#ifont") format("svg"); }

]]></style></defs><g class="transform-group"><g transform="scale(0.1953125, 0.1953125)"><path d="M681.4 640c-9.2-3.7-19.7 0.8-23.4 10-24.2 60.2-81.5 99.1-146.1 99.1s-121.9-38.9-146.1-99.1c-3.7-9.2-14.2-13.7-23.4-10-9.2 3.7-13.7 14.2-10 23.4C362 737.3 432.5 785 511.9 785s149.8-47.7 179.5-121.6C695.1 654.1 690.6 643.7 681.4 640zM367.9 471.8c0 9.9 8.1 18 18 18s18-8.1 18-18c0-49.6-40.4-90-90-90s-90 40.4-90 90c0 9.9 8.1 18 18 18 9.9 0 18-8.1 18-18 0-29.8 24.2-54 54-54C343.6 417.8 367.9 442 367.9 471.8zM709.9 381.8c-49.6 0-90 40.4-90 90 0 9.9 8.1 18 18 18 9.9 0 18-8.1 18-18 0-29.8 24.2-54 54-54 29.8 0 54 24.2 54 54 0 9.9 8.1 18 18 18s18-8.1 18-18C799.9 422.2 759.5 381.8 709.9 381.8zM1015.9 525.8c0-46.7-35.8-85.2-81.3-89.6C894.3 245.2 731.1 105.6 536.8 94.6 544.4 61.1 574.3 36 610 36c19.2 0 37.5 7.3 51.5 20.5 7.2 6.8 18.6 6.5 25.5-0.7 6.8-7.2 6.5-18.6-0.7-25.5C665.5 10.8 638.4 0 610 0c-40.4 0-75.8 21.7-95.3 54.1-16.6-20.4-41.8-33.4-70.1-33.4-23.2 0-45.2 8.8-62.1 24.7-7.2 6.8-7.5 18.2-0.7 25.5 6.8 7.2 18.2 7.5 25.5 0.7 10.1-9.6 23.4-14.8 37.3-14.8 24 0 44.5 15.7 51.6 37.4-198.2 7.2-366.4 151.2-407.1 342.1-45.6 4.4-81.4 42.9-81.4 89.6 0 46.7 35.8 85.2 81.3 89.6 41.9 199.3 217.3 342.4 422.7 342.4 205.1 0 380.8-143.2 422.7-342.4C980.1 611 1015.9 572.5 1015.9 525.8zM925.9 579.8c-1.6 0-3.1-0.1-4.7-0.2-9.7-1.1-18.2 6.2-19.4 15.7 0 0.2-0.1 0.3-0.1 0.5-33.7 188.9-197.6 326-389.8 326-192.8 0-356.8-137.6-390-327.1 0 0 0 0 0 0-1.5-9.3-9.6-16.2-19.3-15.1-1.5 0.1-3.1 0.2-4.7 0.2-29.8 0-54-24.2-54-54 0-24.5 16.9-45.1 39.1-51.7-0.7 5.5-1.2 11-1.7 16.6-0.8 9.9 6.6 18.6 16.5 19.4 0.5 0 1 0.1 1.5 0.1 9.3 0 17.2-7.1 17.9-16.6C133.6 289.6 307 129.8 511.9 129.8c192.2 0 356.1 137.1 389.8 326 2 11.4 3.6 23 4.6 34.6 0.9 9.9 9.4 17.4 19.5 16.3 9.9-0.9 17.2-9.6 16.3-19.5-0.4-4.4-0.9-8.8-1.4-13.2 22.2 6.6 39.1 27.4 39.1 51.9C979.9 555.6 955.6 579.8 925.9 579.8z" fill="#56abe4"></path></g></g></svg>