<?xml version="1.0" standalone="no"?><!DOCTYPE svg PUBLIC "-//W3C//DTD SVG 1.1//EN" "http://www.w3.org/Graphics/SVG/1.1/DTD/svg11.dtd"><svg width="200" height="200" viewBox="0 0 200 200" version="1.1" xmlns="http://www.w3.org/2000/svg" xmlns:xlink="http://www.w3.org/1999/xlink"><defs><style type="text/css"><![CDATA[
@font-face { font-family: ifont; src: url("http://at.alicdn.com/t/font_1442373896_4754455.eot?#iefix") format("embedded-opentype"), url("http://at.alicdn.com/t/font_1442373896_4754455.woff") format("woff"), url("http://at.alicdn.com/t/font_1442373896_4754455.ttf") format("truetype"), url("http://at.alicdn.com/t/font_1442373896_4754455.svg#ifont") format("svg"); }

]]></style></defs><g class="transform-group"><g transform="scale(0.1953125, 0.1953125)"><path d="M72.170205 392.888182c-9.084912 6.253424-13.437034 17.451464-11.192923 28.263717l38.417985 413.820933c3.109828 14.718213 17.657148 24.15105 32.341592 20.898982L523.790022 719.950146c7.358595-1.486864 13.437034-5.872754 17.20587-11.818163 2.000564-2.968611 3.349281-6.42534 4.03899-9.985422 1.970888-10.81123-3.075035-21.3871-12.298094-27.260877L404.069337 587.759451c189.650361-293.547663 387.871935-328.480266 554.646286 89.933265 0-710.22976-561.659003-585.603345-725.499535-200.152553L102.199125 392.81962C92.937181 386.878305 81.226464 386.53038 72.170205 392.888182L72.170205 392.888182zM72.170205 392.888182" fill="#56abe4"></path></g></g></svg>