<?xml version="1.0" standalone="no"?><!DOCTYPE svg PUBLIC "-//W3C//DTD SVG 1.1//EN" "http://www.w3.org/Graphics/SVG/1.1/DTD/svg11.dtd"><svg width="200" height="200" viewBox="0 0 200 200" version="1.1" xmlns="http://www.w3.org/2000/svg" xmlns:xlink="http://www.w3.org/1999/xlink"><defs><style type="text/css"><![CDATA[
@font-face { font-family: ifont; src: url("http://at.alicdn.com/t/font_1442373896_4754455.eot?#iefix") format("embedded-opentype"), url("http://at.alicdn.com/t/font_1442373896_4754455.woff") format("woff"), url("http://at.alicdn.com/t/font_1442373896_4754455.ttf") format("truetype"), url("http://at.alicdn.com/t/font_1442373896_4754455.svg#ifont") format("svg"); }

]]></style></defs><g class="transform-group"><g transform="scale(0.1953125, 0.1953125)"><path d="M870.4 128 153.6 128C104.128 128 64 168.96 64 219.392l0 457.216C64 727.04 104.128 768 153.6 768L870.4 768c49.472 0 89.6-40.96 89.6-91.456L960 219.392C960 168.96 919.872 128 870.4 128zM672 576l-320 0C334.4 576 320 561.6 320 544S334.4 512 352 512l320 0C689.6 512 704 526.4 704 544S689.6 576 672 576zM672 384l-320 0C334.4 384 320 369.6 320 352S334.4 320 352 320l320 0C689.6 320 704 334.4 704 352S689.6 384 672 384zM585.856 832 438.208 832c0 0-29.632 85.312-118.208 85.312L320 960l384 0 0-42.688C615.36 917.312 585.856 832 585.856 832z" fill="#56abe4"></path></g></g></svg>