<?xml version="1.0" standalone="no"?><!DOCTYPE svg PUBLIC "-//W3C//DTD SVG 1.1//EN" "http://www.w3.org/Graphics/SVG/1.1/DTD/svg11.dtd"><svg width="200" height="200" viewBox="0 0 200 200" version="1.1" xmlns="http://www.w3.org/2000/svg" xmlns:xlink="http://www.w3.org/1999/xlink"><defs><style type="text/css"><![CDATA[
@font-face { font-family: ifont; src: url("http://at.alicdn.com/t/font_1442373896_4754455.eot?#iefix") format("embedded-opentype"), url("http://at.alicdn.com/t/font_1442373896_4754455.woff") format("woff"), url("http://at.alicdn.com/t/font_1442373896_4754455.ttf") format("truetype"), url("http://at.alicdn.com/t/font_1442373896_4754455.svg#ifont") format("svg"); }

]]></style></defs><g class="transform-group"><g transform="scale(0.1953125, 0.1953125)"><path d="M526.297 201.636h153.025v46.448h-153.025v-46.448zM377.644 877.929h172.514v46.45h-172.514v-46.45zM837.134 374.154h46.448v-172.517h-172.517v46.448h126.069v126.069zM206.211 751.859h-46.447v172.516h172.515v-46.448h-126.068v-126.068zM159.764 529.993h46.448v172.516h-46.448v-172.516zM837.134 414.583h46.448v97.415h-46.448v-97.415zM476.847 386.545h-431.668v-287.527h431.667v287.527zM278.671 432.4h-34.786v-47.437h34.786v47.437zM373.014 473.511h-226.112v-41.638h226.111l0.001 41.638zM978.821 838.017h-431.668v-287.526h431.667v287.526h0.001zM780.644 883.871h-34.787v-47.437h34.787v47.437zM874.989 924.982h-226.112v-41.637h226.111l0.001 41.637z" fill="#56abe4"></path></g></g></svg>