<?xml version="1.0" standalone="no"?><!DOCTYPE svg PUBLIC "-//W3C//DTD SVG 1.1//EN" "http://www.w3.org/Graphics/SVG/1.1/DTD/svg11.dtd"><svg t="1482476423686" class="icon" style="" viewBox="0 0 1024 1024" version="1.1" xmlns="http://www.w3.org/2000/svg" p-id="1838" xmlns:xlink="http://www.w3.org/1999/xlink" width="200" height="200"><defs><style type="text/css"></style></defs><path d="M513.767761 433.187003c-35.33988 0-53.010331 28.16855-53.010331 84.427878 0 54.974056 17.670451 82.46006 53.010331 82.46006 36.627199 0 54.974056-27.486004 54.974056-82.46006C570.041416 461.35453 551.720142 433.187003 513.767761 433.187003L513.767761 433.187003zM513.767761 433.187003" p-id="1839" fill="#d81e06"></path><path d="M510.143211 64.460104c-246.125607 0-445.658036 199.520149-445.658036 445.644733 0 246.11742 199.532429 445.645756 445.658036 445.645756 246.112304 0 445.63143-199.527312 445.63143-445.645756C955.775664 263.980253 756.255515 64.460104 510.143211 64.460104L510.143211 64.460104zM244.398778 647.193075c-71.993684-1.319042-109.309568-26.810622-111.907743-76.56684l70.680782 0c2.599198 18.33867 16.34527 28.155247 41.22696 29.447682 23.556509 0 35.341926-9.141194 35.341926-27.486004-1.312902-14.383592-18.345834-24.842805-51.049676-31.417547-64.145949-11.778254-94.912673-39.258119-92.275613-82.459037 2.612501-44.482097 38.588877-69.356624 107.984387-74.599022 64.120366 0 98.174973 24.874527 102.098329 74.599022l-68.719104 0c-1.312902-15.702634-12.447497-24.205285-33.379225-25.524327-19.632129 0-29.454846 7.853875-29.454846 23.562649 0 10.490935 16.34527 19.632129 49.086975 27.486004 62.834071 17.026792 94.250594 45.156456 94.250594 84.427878-3.922333 47.119157-41.914622 73.318866-113.883747 78.535681L244.398778 647.193075zM513.767761 647.193075c-83.779102-2.638083-127.628796-45.800116-131.553175-129.585357 3.936659-85.065398 47.775096-129.573077 131.553175-133.502573 83.740216 3.930519 127.617539 48.437176 131.554198 133.502573C641.385301 601.393983 597.507978 644.554992 513.767761 647.193075L513.767761 647.193075zM792.557302 647.193075c-71.992661-1.319042-109.295242-26.810622-111.89444-76.56684l70.680782 0c2.599198 18.33867 16.346293 28.155247 41.212634 29.447682 23.569812 0 35.355229-9.141194 35.355229-27.486004-1.325182-14.383592-18.359137-24.842805-51.049676-31.417547-64.146972-11.778254-94.926999-39.258119-92.275613-82.459037 2.598174-44.482097 38.588877-69.356624 107.97006-74.599022 64.133669 0 98.174973 24.874527 102.099353 74.599022l-68.707848 0c-1.325182-15.702634-12.4608-24.205285-33.392528-25.524327-19.617803 0-29.440519 7.853875-29.440519 23.562649 0 10.490935 16.344247 19.632129 49.085952 27.486004 62.822814 17.026792 94.239338 45.156456 94.239338 84.427878-3.924379 47.119157-41.902342 73.318866-113.88477 78.535681L792.555256 647.193075zM792.557302 647.193075" p-id="1840" fill="#d81e06"></path></svg>