<?xml version="1.0" standalone="no"?><!DOCTYPE svg PUBLIC "-//W3C//DTD SVG 1.1//EN" "http://www.w3.org/Graphics/SVG/1.1/DTD/svg11.dtd"><svg width="200" height="200" viewBox="0 0 200 200" version="1.1" xmlns="http://www.w3.org/2000/svg" xmlns:xlink="http://www.w3.org/1999/xlink"><defs><style type="text/css"><![CDATA[
@font-face { font-family: ifont; src: url("http://at.alicdn.com/t/font_1442373896_4754455.eot?#iefix") format("embedded-opentype"), url("http://at.alicdn.com/t/font_1442373896_4754455.woff") format("woff"), url("http://at.alicdn.com/t/font_1442373896_4754455.ttf") format("truetype"), url("http://at.alicdn.com/t/font_1442373896_4754455.svg#ifont") format("svg"); }

]]></style></defs><g class="transform-group"><g transform="scale(0.1953125, 0.1953125)"><path d="M827.919694 841.406358c14.153348-4.76963 21.797445-20.171412 16.97358-34.377972-4.7727-14.098089-19.844977-21.689998-34.377972-16.97051-49.181119 16.58984-107.799168 25.37697-169.452343 25.37697-49.052183 0-93.593632-5.433756-131.87654-14.474666-32.971949-7.785314-61.300135-18.246573-83.838454-30.236652-37.734416-20.073174-59.260685-44.413536-59.260685-67.588351 0-39.434128 60.999282-78.827323 147.81658-98.723465 14.534018-3.330862 29.788443-6.118348 45.605687-8.264221 8.491395-1.150196 15.530718-6.123464 19.615757-12.95608 3.037173-5.078669 4.444219-11.18269 3.588735-17.515932-0.101307-0.750083 0.218988-5.995551 0.218988-7.973602 0 0-0.01842-53.308113-0.047072-53.821813 0.306992-10.287297-5.287423-20.282952-15.135722-25.12933-8.223289-4.042059-15.985066-8.697079-23.277146-13.863752-20.058848-14.20963-36.443004-32.414247-48.293913-53.275367-13.954827-24.564465-21.639856-52.79032-21.639856-82.467223 0-17.140379 2.606361-33.683147 7.440459-49.257867 5.731538-18.464537 14.59951-35.56296 25.973558-50.674123 30.41573-40.407292 78.766948-66.591651 133.1086-66.591651 91.855034 0 166.57583 74.722842 166.57583 166.522618 0 64.041572-35.734876 121.354905-93.264127 149.606343-9.895371 4.866844-15.525602 14.930037-15.20019 25.264407-0.023536 0.468674-0.036839 53.685713-0.036839 53.685713 0 2.025123 0.367367 7.269567 0.270153 7.973602-2.006703 14.801101 8.40646 28.466332 23.207561 30.472012 20.715811 2.874467 40.452317 6.668886 58.832943 11.44261 80.527035 20.767999 134.586255 59.160401 134.586255 95.545076 0 11.277858-5.043876 22.774703-15.072277 34.269501-9.871835 11.277858-8.732895 28.359908 2.548032 38.226626 5.151323 4.500501 11.492752 6.722098 17.839297 6.722098 7.537673 0 15.021112-3.142573 20.386306-9.270131 18.927071-21.584598 28.525684-45.169759 28.525684-69.949118 0-64.363913-65.506946-119.78413-175.256536-148.035568-13.299911-3.431146-27.232225-6.41613-41.643446-8.953929l0-26.858718c67.328431-39.628556 108.50218-110.994953 108.50218-190.142571 0-121.731482-99.013061-220.747613-220.800825-220.747613-68.781526 0-130.302695 31.614022-170.817434 81.069387-33.627888-26.821879-76.193333-42.884716-122.42426-42.884716-106.49036 0-193.515389 85.189218-196.606797 190.905958-0.143263 0.966001 0 168.402431 0 168.402431l96.590895 0 0 30.953989C130.063753 557.514613 54.629713 610.781794 54.629713 676.175153c0 84.560908 126.047788 148.309814 293.193599 148.309814 19.596314 0 38.908148-0.940418 57.739029-2.75474 58.875922 29.92352 141.383054 47.929616 235.502665 47.929616C708.517257 869.658819 773.154393 859.900571 827.919694 841.406358zM102.923626 676.175153c0-41.000809 74.084299-81.908498 172.266435-95.285157 1.787716-0.23843 3.235694-1.109264 4.875031-1.691525 0.581238-0.144286 1.159406-0.23843 1.642406-0.481977 9.079796-4.104481 14.921851-13.280468 14.100136-23.566742 0.048095-0.578168 0.291642-1.111311 0.291642-1.690502l0-71.716368c0-13.33061-10.818393-24.149003-24.149003-24.149003l-72.436776 0L199.513498 343.184153c0-81.807191 66.545602-148.357909 148.308791-148.357909 36.567847 0 70.080102 13.304004 95.969749 35.317367-15.010879 29.792537-23.480784 63.423495-23.480784 99.001805 0 47.290049 14.706957 91.814102 40.908712 128.447441 13.071713 18.277272 29.007661 34.58775 47.40773 48.296983 6.401804 4.76963 13.100366 9.224082 20.081361 13.33675l0 26.888394c-7.617491 1.328251-15.084557 2.772136-22.376637 4.341888-33.850969 7.28594-64.114227 17.129122-90.116437 29.065989-65.856917 30.234605-104.35165 73.913407-104.35165 123.612319 0 26.51591 11.047614 51.206242 31.048133 73.027224C201.198883 774.983553 102.923626 722.915687 102.923626 676.175153z" fill="#56abe4"></path></g></g></svg>