<?xml version="1.0" standalone="no"?><!DOCTYPE svg PUBLIC "-//W3C//DTD SVG 1.1//EN" "http://www.w3.org/Graphics/SVG/1.1/DTD/svg11.dtd"><svg width="200" height="200" viewBox="0 0 200 200" version="1.1" xmlns="http://www.w3.org/2000/svg" xmlns:xlink="http://www.w3.org/1999/xlink"><defs><style type="text/css"><![CDATA[
@font-face { font-family: ifont; src: url("http://at.alicdn.com/t/font_1442373896_4754455.eot?#iefix") format("embedded-opentype"), url("http://at.alicdn.com/t/font_1442373896_4754455.woff") format("woff"), url("http://at.alicdn.com/t/font_1442373896_4754455.ttf") format("truetype"), url("http://at.alicdn.com/t/font_1442373896_4754455.svg#ifont") format("svg"); }

]]></style></defs><g class="transform-group"><g transform="scale(0.1953125, 0.1953125)"><path d="M8.784482 180.205702l119.686517-119.529944c9.411799-9.411799 24.784642-9.254202 34.19644 0l0.156573 0 120.941151 121.097724c4.705388 4.706411 7.215678 10.824029 7.215678 17.09822l0 111.685926 75.607535 0L366.588377 198.872726c0-7.529848 3.294181-14.11821 8.627908-18.667024l119.686517-119.529944c9.411799-9.411799 24.784642-9.254202 34.353014 0L650.352518 181.774506c4.706411 4.706411 7.059105 10.824029 7.059105 17.09822l0 111.685926 75.607535 0L733.019158 198.872726c0-7.529848 3.450754-14.11821 8.626885-18.667024l119.843091-119.529944c9.411799-9.411799 24.784642-9.254202 34.19644 0l0.156573 0 120.941151 121.097724c4.862984 4.706411 7.059105 10.824029 7.059105 17.09822l0.156573 0 0 746.979771c0 13.489869-10.980602 24.470472-24.470472 24.470472L757.333056 970.321945c-13.333296 0-24.313898-10.980602-24.313898-24.470472L733.019158 764.9898l-75.607535 0 0 180.862697c0 13.489869-10.980602 24.470472-24.313898 24.470472L390.902276 970.322969c-13.333296 0-24.313898-10.980602-24.313898-24.470472L366.588377 764.9898l-75.607535 0 0 180.862697c0 13.489869-10.980602 24.470472-24.313898 24.470472L24.470472 970.322969c-13.489869 0-24.470472-10.980602-24.470472-24.470472L0 198.872726C0 191.342878 3.450754 184.754517 8.784482 180.205702L8.784482 180.205702zM290.979819 683.735391l75.607535 0L366.587354 391.814085l-75.607535 0L290.979819 683.735391zM657.411623 683.735391l75.607535 0L733.019158 391.814085l-75.607535 0L657.411623 683.735391zM878.430781 112.283565l-96.627253 96.627253 0 712.62778 193.412102 0L975.21563 209.068415 878.430781 112.283565 878.430781 112.283565zM512 112.283565l-96.627253 96.627253 0 712.62778 193.254506 0L608.627253 209.068415 512 112.283565 512 112.283565zM145.568196 112.283565l-96.783826 96.627253 0 712.62778 193.412102 0L242.196472 209.068415 145.568196 112.283565 145.568196 112.283565z" fill="#ea8010"></path></g></g></svg>