<?xml version="1.0" standalone="no"?><!DOCTYPE svg PUBLIC "-//W3C//DTD SVG 1.1//EN" "http://www.w3.org/Graphics/SVG/1.1/DTD/svg11.dtd"><svg width="200" height="200" viewBox="0 0 200 200" version="1.1" xmlns="http://www.w3.org/2000/svg" xmlns:xlink="http://www.w3.org/1999/xlink"><defs><style type="text/css"><![CDATA[
@font-face { font-family: ifont; src: url("http://at.alicdn.com/t/font_1442373896_4754455.eot?#iefix") format("embedded-opentype"), url("http://at.alicdn.com/t/font_1442373896_4754455.woff") format("woff"), url("http://at.alicdn.com/t/font_1442373896_4754455.ttf") format("truetype"), url("http://at.alicdn.com/t/font_1442373896_4754455.svg#ifont") format("svg"); }

]]></style></defs><g class="transform-group"><g transform="scale(0.1953125, 0.1953125)"><path d="M674.304 696.96c-71.04 71.168-149.248 149.504-149.248 149.504-7.168 7.168-18.944 7.168-26.112 0 0 0-78.208-78.336-149.248-149.504-122.368 19.84-206.592 61.312-206.592 109.312 0 67.2 165.12 121.728 368.896 121.728 203.776 0 368.896-54.528 368.896-121.728C880.896 758.272 796.672 716.8 674.304 696.96L674.304 696.96 674.304 696.96zM674.304 696.96M502.272 736.128c5.248 5.248 14.08 5.248 19.328 0 0 0 194.432-194.688 194.944-195.456 40.448-47.104 64.768-108.288 64.768-175.232C781.44 216.576 660.736 96 512 96c-148.864 0-269.44 120.576-269.44 269.44 0 66.944 24.448 128.128 64.768 175.232C307.84 541.44 502.272 736.128 502.272 736.128L502.272 736.128 502.272 736.128zM512 242.432c64 0 115.84 51.84 115.84 115.84 0 64-51.84 115.84-115.84 115.84-64 0-115.84-51.84-115.84-115.84C396.16 294.272 448 242.432 512 242.432L512 242.432 512 242.432zM512 242.432" fill="#56abe4"></path></g></g></svg>