<?xml version="1.0" standalone="no"?><!DOCTYPE svg PUBLIC "-//W3C//DTD SVG 1.1//EN" "http://www.w3.org/Graphics/SVG/1.1/DTD/svg11.dtd"><svg t="1480867252619" class="icon" style="" viewBox="0 0 1024 1024" version="1.1" xmlns="http://www.w3.org/2000/svg" p-id="11791" xmlns:xlink="http://www.w3.org/1999/xlink" width="200" height="200"><defs><style type="text/css"></style></defs><path d="M552.426157 158.872342C563.464131 187.346407 563.122246 216.178637 560.338333 245.055637 553.354128 317.404835 561.852391 388.813851 599.166604 458.476816 601.901677 463.535887 605.173996 468.505417 608.690519 474.370359 650.644588 445.314276 691.621845 416.929752 733.917798 387.605046 736.408668 396.783007 738.508814 404.841705 740.755481 412.945173 755.114615 465.058085 782.367666 515.066782 814.407095 564.31438 836.092321 597.623663 858.168261 630.888177 877.020731 664.734708 917.949147 738.203169 884.932908 802.62798 800.047961 859.844732 774.699693 876.947083 744.80925 891.00503 711.109241 902.331977 708.374168 903.272163 705.541414 904.078029 701.731848 905.242068 708.716052 898.213091 715.407214 891.945216 721.316925 885.498258 746.665193 857.874827 746.079105 829.311225 729.180261 800.523764 715.895619 777.959411 700.901557 755.753221 686.835467 733.323179 670.718071 707.580117 658.947489 681.165497 652.891255 653.989777 652.744733 653.318219 652.256328 652.691431 651.426038 651.079692 627.933713 667.331399 605.271678 683.045859 581.046744 699.790043 561.950072 680.852103 542.706879 662.943886 525.368468 644.408881 493.377881 610.248956 467.834251 574.522063 454.549609 536.243249 448.444536 518.693196 445.855984 501.008832 448.053811 483.100614 448.200332 481.712728 448.346854 480.369611 448.395695 478.981724 444.293085 480.145758 441.704534 482.339515 439.360186 484.667584 395.843218 527.289141 356.331178 571.119502 328.492041 618.083802 308.418557 651.885561 296.647975 686.806585 289.66377 722.264855 284.047102 750.873232 282.484203 779.52638 287.954349 808.179529 294.938554 844.667516 311.593196 879.096064 353.20538 908.06261 356.233497 910.166828 359.408136 912.181497 362.533933 914.285714 343.095378 910.569757 324.389431 906.047934 306.806818 900.406843 212.251431 870.052418 157.696489 822.46133 131.273729 763.05082 113.446912 722.981184 110.369955 682.150449 114.91213 641.00632 121.066045 586.072863 141.725615 532.795917 169.515913 480.190529 202.336791 418.093786 258.210428 363.294641 324.633634 311.629435 365.317847 279.93189 406.636989 248.502969 446.490912 216.492031 477.797731 191.330986 501.827303 163.931413 513.597886 133.397903 516.479481 125.876452 517.749337 118.131148 519.996003 109.714286 535.624993 125.428746 545.783837 141.769995 552.426157 158.872342Z" p-id="11792" fill="#d81e06"></path></svg>