<?xml version="1.0" standalone="no"?><!DOCTYPE svg PUBLIC "-//W3C//DTD SVG 1.1//EN" "http://www.w3.org/Graphics/SVG/1.1/DTD/svg11.dtd"><svg t="1482482043911" class="icon" style="" viewBox="0 0 1024 1024" version="1.1" xmlns="http://www.w3.org/2000/svg" p-id="6781" xmlns:xlink="http://www.w3.org/1999/xlink" width="200" height="200"><defs><style type="text/css"></style></defs><path d="M512.36532 955.679985c-158.51013 0-318.467215-41.884946-318.467215-135.50109 0-73.078389 109.539812-118.41904 211.319893-129.556705l5.558599-0.618077L270.084275 470.461955c-4.517897-7.895831-8.80248-16.310477-12.586666-24.841781l-3.724835-7.296173-0.579191-2.916423c-12.372795-31.172977-18.645662-63.869656-18.645662-97.03194 0-149.186787 124.614136-270.616394 277.796934-270.616394 153.163355 0 277.778514 121.410164 277.778514 270.616394 0 33.219589-6.27389 65.858964-18.685571 97.03194l-1.871627 4.690836 0.172939 0-1.446955 2.857071c-4.072759 9.3039-8.550747 18.22099-13.415544 26.694989L512.095167 862.161055l-57.482179-91.51018-2.182712 0.211824c-93.113701 7.757684-152.506393 32.813337-168.063717 46.769186l-2.702552 2.566452 2.817162 2.52859c20.36277 18.394952 98.441033 47.464011 222.284619 48.332798l11.059893 0 0 0c123.630738-0.830925 201.88194-29.860075 222.379787-48.197722l2.916423-2.586918-2.953262-2.52859c-11.368932-9.806343-52.772924-29.14683-116.489084-40.534182l48.931432-76.32227c102.08912 22.429849 158.239977 64.74049 158.239977 119.346155C830.830489 913.796062 670.912289 955.679985 512.36532 955.679985L512.36532 955.679985 512.36532 955.679985zM512.36532 192.393845c-65.299215 0-118.41904 51.78748-118.41904 115.427916 0 63.562665 53.119825 115.350145 118.41904 115.350145 65.337077 0 118.515231-51.750641 118.515231-115.350145C630.879528 244.181325 577.702398 192.393845 512.36532 192.393845L512.36532 192.393845 512.36532 192.393845z" p-id="6782" fill="#2c2c2c"></path></svg>