<?xml version="1.0" standalone="no"?><!DOCTYPE svg PUBLIC "-//W3C//DTD SVG 1.1//EN" "http://www.w3.org/Graphics/SVG/1.1/DTD/svg11.dtd"><svg t="1482482178393" class="icon" style="" viewBox="0 0 1024 1024" version="1.1" xmlns="http://www.w3.org/2000/svg" p-id="2016" xmlns:xlink="http://www.w3.org/1999/xlink" width="200" height="200"><defs><style type="text/css"></style></defs><path d="M778.340887 202.782266q45.399015 32.283744 80.70936 73.142857t60.53202 88.275862 38.336946 100.382266 13.115271 107.444335q0 93.824631-35.814778 176.047291t-96.851232 143.259113-143.259113 96.851232-176.047291 35.814778q-92.815764 0-175.038424-35.814778t-143.763547-96.851232-96.851232-143.259113-35.310345-176.047291q0-53.469951 12.610837-104.922167t35.814778-97.860099 57.505419-86.762562 76.673892-72.638424q22.195074-16.141872 47.921182-12.106404t41.86798 25.221675 12.106404 47.416749-25.221675 42.372414q-63.558621 46.407882-97.355665 114.00197t-33.797044 145.276847q0 66.585222 25.221675 125.603941t69.107389 102.904433 102.904433 69.611823 125.603941 25.726108 125.603941-25.726108 102.904433-69.611823 69.611823-102.904433 25.726108-125.603941q0-78.691626-36.319212-148.807882t-101.895567-115.515271q-22.195074-15.133005-26.734975-41.363547t10.593103-48.425616q15.133005-21.186207 41.363547-25.726108t48.425616 10.593103zM519.062069 575.054187q-26.230542 0-44.894581-18.664039t-18.664039-44.894581l0-383.369458q0-26.230542 18.664039-45.399015t44.894581-19.168473q27.239409 0 45.903448 19.168473t18.664039 45.399015l0 383.369458q0 26.230542-18.664039 44.894581t-45.903448 18.664039z" p-id="2017" fill="#d81e06"></path></svg>