<?xml version="1.0" standalone="no"?><!DOCTYPE svg PUBLIC "-//W3C//DTD SVG 1.1//EN" "http://www.w3.org/Graphics/SVG/1.1/DTD/svg11.dtd"><svg width="200" height="200" viewBox="0 0 200 200" version="1.1" xmlns="http://www.w3.org/2000/svg" xmlns:xlink="http://www.w3.org/1999/xlink"><defs><style type="text/css"><![CDATA[
@font-face { font-family: ifont; src: url("http://at.alicdn.com/t/font_1442373896_4754455.eot?#iefix") format("embedded-opentype"), url("http://at.alicdn.com/t/font_1442373896_4754455.woff") format("woff"), url("http://at.alicdn.com/t/font_1442373896_4754455.ttf") format("truetype"), url("http://at.alicdn.com/t/font_1442373896_4754455.svg#ifont") format("svg"); }

]]></style></defs><g class="transform-group"><g transform="scale(0.1953125, 0.1953125)"><path d="M396.954637 882.852558 396.954637 638.146446c0-63.724505 51.659318-115.363503 115.363503-115.363503s115.363503 51.638998 115.363503 115.363503l0 244.706112 41.950018 0L669.631661 638.146446c0-86.890933-70.421318-157.313522-157.313522-157.313522-86.890933 0-157.313522 70.421318-157.313522 157.313522l0 244.706112L396.954637 882.852558zM396.954637 870.613379 239.641115 870.613379c-23.146108 0-41.950018-18.78359-41.950018-41.950018L197.691097 431.016405 155.739808 431.016405l0 397.645686c0 46.331586 37.565911 83.900037 83.900037 83.900037L396.954637 912.562128 396.954637 870.613379zM826.943913 431.016405l0 397.645686c0 23.166428-18.762 41.950018-41.950018 41.950018L627.710853 870.612109l0 41.950018 157.281771 0c46.334126 0 83.900037-37.568451 83.900037-83.900037L868.892661 431.016405 826.943913 431.016405zM105.885188 431.016405 482.658101 54.232061c16.385793-16.376903 42.931744-16.376903 59.320077 0l376.774184 376.784344 59.340397 0L571.639487 24.572022c-32.755076-32.762696-85.888888-32.762696-118.641424 0L46.543521 431.016405 105.885188 431.016405zM978.092759 431.016405 828.70543 431.016405 828.70543 472.966423 1020.065638 472.966423ZM195.92831 431.016405 46.543521 431.016405 4.856396 472.966423 195.92831 472.966423Z" fill="#272636"></path></g></g></svg>