<?xml version="1.0" standalone="no"?><!DOCTYPE svg PUBLIC "-//W3C//DTD SVG 1.1//EN" "http://www.w3.org/Graphics/SVG/1.1/DTD/svg11.dtd"><svg width="200" height="200" viewBox="0 0 200 200" version="1.1" xmlns="http://www.w3.org/2000/svg" xmlns:xlink="http://www.w3.org/1999/xlink"><defs><style type="text/css"><![CDATA[
@font-face { font-family: ifont; src: url("http://at.alicdn.com/t/font_1442373896_4754455.eot?#iefix") format("embedded-opentype"), url("http://at.alicdn.com/t/font_1442373896_4754455.woff") format("woff"), url("http://at.alicdn.com/t/font_1442373896_4754455.ttf") format("truetype"), url("http://at.alicdn.com/t/font_1442373896_4754455.svg#ifont") format("svg"); }

]]></style></defs><g class="transform-group"><g transform="scale(0.1953125, 0.1953125)"><path d="M508.402055 322.047764c-124.401288 0-225.258347 100.835569-225.258347 225.235834l0 276.754185 453.721689 0L736.865397 547.283598c0-124.401288-100.834546-225.235834-225.236857-225.235834L508.402055 322.047764 508.402055 322.047764zM246.896156 456.948173c3.999081-19.862373-8.886391-39.201837-28.747741-43.201941l-106.220207-21.316491c-19.862373-3.976568-39.225373 8.90788-43.201941 28.770254-0.86367 4.318352-0.932232 8.614192-0.317225 12.749372 2.249227 14.817474 13.521968 27.317159 29.065989 30.452569l106.220207 21.316491C223.579101 489.696018 242.918565 476.833059 246.896156 456.948173zM222.556818 210.850196l67.654866 84.60798c12.657274 15.817244 35.747155 18.385742 51.586912 5.727445 15.817244-12.658298 18.385742-35.748179 5.727445-51.587935l-67.677379-84.58649c-12.634762-15.816221-35.724643-18.384719-51.564399-5.748934-10.636245 8.499581-15.271822 21.680788-13.363356 34.224476C215.852116 199.647039 218.374566 205.64566 222.556818 210.850196zM514.605338 242.84898c20.271696 0.476861 37.066197-15.567557 37.543058-35.815717L551.898709 98.721419c0.476861-20.249183-15.567557-37.066197-35.815717-37.543058-20.271696-0.476861-37.08871 15.567557-37.566594 35.815717l0.249687 108.310821c-0.045025 2.181689 0.091074 4.340865 0.409322 6.432503C481.812467 229.007741 496.538867 242.438635 514.605338 242.84898zM684.48133 309.253366c15.204283 13.385868 38.406728 11.909238 51.792597-3.295046l71.563896-81.335447c13.385868-15.226796 11.908214-38.406728-3.295046-51.792597-15.226796-13.385868-38.406728-11.908214-51.792597 3.295046l-71.585385 81.33647c-7.454786 8.476045-10.295484 19.430538-8.726755 29.792537C673.686473 295.480688 677.754115 303.322283 684.48133 309.253366zM951.600063 441.972087c-3.045359-20.044522-21.769816-33.816177-41.791825-30.748305l-107.10639 16.294105c-20.044522 3.045359-33.816177 21.748327-30.771841 41.792848 3.046383 20.043499 21.771863 33.815153 41.816384 30.770817l107.083877-16.316617C940.873768 480.719576 954.645422 462.015585 951.600063 441.972087zM816.995389 908.009266c0 28.883841-23.407106 52.269457-52.292993 52.269457L243.805772 960.278723c-28.885887 0-52.292993-23.385617-52.292993-52.269457l0 0c0-28.883841 23.407106-52.269457 52.292993-52.269457l520.896624 0C793.588283 855.739808 816.995389 879.125425 816.995389 908.009266L816.995389 908.009266z" fill="#eb4f38"></path></g></g></svg>