<?xml version="1.0" standalone="no"?><!DOCTYPE svg PUBLIC "-//W3C//DTD SVG 1.1//EN" "http://www.w3.org/Graphics/SVG/1.1/DTD/svg11.dtd"><svg width="200" height="200" viewBox="0 0 200 200" version="1.1" xmlns="http://www.w3.org/2000/svg" xmlns:xlink="http://www.w3.org/1999/xlink"><defs><style type="text/css"><![CDATA[
@font-face { font-family: ifont; src: url("http://at.alicdn.com/t/font_1442373896_4754455.eot?#iefix") format("embedded-opentype"), url("http://at.alicdn.com/t/font_1442373896_4754455.woff") format("woff"), url("http://at.alicdn.com/t/font_1442373896_4754455.ttf") format("truetype"), url("http://at.alicdn.com/t/font_1442373896_4754455.svg#ifont") format("svg"); }

]]></style></defs><g class="transform-group"><g transform="scale(0.1953125, 0.1953125)"><path d="M751.84128 614.07232c-10.8032-48.64-26.48064-95.78496-45.60896-141.85472-11.54048-27.83232-26.55232-53.79072-46.31552-76.87168-4.46464-4.51584-8.76544-9.17504-13.37344-13.50656-35.77856-33.3824-77.28128-45.52704-124.416-35.90144-28.18048 5.76512-53.1968 18.45248-76.56448 34.75456-13.96736 9.76896-25.88672 21.27872-35.18464 35.04128-3.60448 5.33504-6.79936 11.008-9.56416 17.05984-12.35968 26.85952-9.96352 51.92704 1.6384 80.88576 14.2336 35.54304 80.32256 77.76256 109.69088 103.04512 68.29056 86.3232 71.77216 85.00224 76.51328 94.86336 6.05184 12.60544 12.3904 22.85568 22.92736 32.16384 13.74208 12.16512 29.34784 20.41856 47.40096 23.23456 23.68512 3.6864 44.57472-2.62144 62.13632-18.1248 7.81312-6.87104 14.47936-14.30528 19.9168-22.3744 11.008-16.37376 16.97792-35.23584 17.1008-56.96512C758.26176 650.8032 755.84512 632.36096 751.84128 614.07232zM354.16064 414.72c-15.24736-9.59488-32.88064-14.00832-52.08064-9.60512-12.77952 2.94912-22.74304 9.90208-28.95872 19.12832-7.76192 11.52-9.6768 26.55232-3.91168 41.66656 11.9808 31.27296 51.03616 49.69472 82.83136 39.05536 10.496-3.52256 18.71872-9.87136 24.1152-17.8688 8.16128-12.11392 9.8304-27.9552 3.1744-43.3664C374.20032 431.86176 365.91616 422.68672 354.16064 414.72zM381.06112 414.14656c13.1072 1.3824 24.4736-3.91168 30.976-13.568 2.92864-4.33152 4.87424-9.54368 5.55008-15.40096 1.9456-16.78336-4.54656-30.64832-14.336-41.28768-8.72448-8.77568-17.32608-14.00832-27.63776-16.0768-14.67392-2.99008-27.58656 2.32448-34.78528 12.99456-3.11296 4.608-5.14048 10.20928-5.81632 16.56832C332.26752 383.70304 354.70336 411.37152 381.06112 414.14656zM440.65792 358.83008c11.8272 1.97632 22.3744-2.54976 28.33408-11.37664 2.23232-3.31776 3.82976-7.22944 4.61824-11.61216 2.56-14.336-2.29376-26.61376-10.15808-36.27008-7.05536-7.99744-14.19264-12.96384-22.9376-15.26784-13.1072-3.50208-25.00608 0.96256-31.5904 10.73152-2.38592 3.5328-4.08576 7.75168-4.88448 12.56448C400.30208 330.0864 418.1504 355.06176 440.65792 358.83008zM507.4432 330.86464c12.56448 4.08576 24.76032-0.08192 31.54944-10.15808 1.4848-2.18112 2.69312-4.64896 3.62496-7.38304 4.5056-13.48608 1.55648-26.0608-4.6592-36.54656-5.67296-8.74496-11.84768-14.56128-19.99872-18.06336-13.62944-5.90848-27.24864-1.90464-34.70336 9.15456-1.60768 2.39616-2.94912 5.14048-3.92192 8.18176C472.48384 297.28768 486.16448 323.9936 507.4432 330.86464zM578.10944 332.2368c12.16512 5.61152 25.00608 2.08896 32.11264-8.45824 0.80896-1.19808 1.536-2.47808 2.19136-3.86048 5.65248-11.95008 4.3008-23.83872-0.29696-34.17088-4.2496-8.67328-9.30816-14.71488-16.4352-18.82112-12.96384-7.5264-27.17696-4.25984-35.00032 7.30112-0.91136 1.36192-1.7408 2.85696-2.46784 4.44416C549.59104 297.48224 559.2576 323.584 578.10944 332.2368z" fill="#00bb9c"></path></g></g></svg>