<?xml version="1.0" standalone="no"?><!DOCTYPE svg PUBLIC "-//W3C//DTD SVG 1.1//EN" "http://www.w3.org/Graphics/SVG/1.1/DTD/svg11.dtd"><svg width="200.1953125" height="200" viewBox="0 0 200.1953125 200" version="1.1" xmlns="http://www.w3.org/2000/svg" xmlns:xlink="http://www.w3.org/1999/xlink"><defs><style type="text/css"><![CDATA[
@font-face { font-family: ifont; src: url("http://at.alicdn.com/t/font_1442373896_4754455.eot?#iefix") format("embedded-opentype"), url("http://at.alicdn.com/t/font_1442373896_4754455.woff") format("woff"), url("http://at.alicdn.com/t/font_1442373896_4754455.ttf") format("truetype"), url("http://at.alicdn.com/t/font_1442373896_4754455.svg#ifont") format("svg"); }

]]></style></defs><g class="transform-group"><g transform="scale(0.1953125, 0.1953125)"><path d="M605.824 959.936l-586.24 0C8.896 959.936 0 951.424 0 940.8L0 46.08c0-10.432 8.896-19.008 19.584-19.072l187.328 0c-5.376 0-9.792 4.288-9.792 9.6l0 47.552 0 17.216 0 26.24c0 5.248 4.416 9.472 9.792 9.472l375.936 0c5.312 0 9.792-4.224 9.792-9.472l0-26.24 0-17.28L592.64 36.608c0-5.312-4.48-9.6-9.792-9.6l187.264 0c10.752 0.064 19.584 8.64 19.584 19.072l0 470.592L773.12 545.344l-81.28 136.96L691.84 161.088 608.64 161.088 593.664 161.088 195.968 161.088 181.056 161.088 97.856 161.088l0 707.456 492.288 0-3.456 90.688L605.824 959.936zM631.104 347.456 158.592 347.456l0 7.168 472.512 0L631.104 347.456zM631.104 490.816 158.592 490.816l0 7.168 472.512 0L631.104 490.816zM631.104 635.52 158.592 635.52l0 7.232 472.512 0L631.104 635.52zM158.592 788.032l470.4 0 2.112-3.52L631.104 780.8 158.592 780.8 158.592 788.032zM219.392 332.864c0.128 0 0.128 0 0.256 0C222.528 332.8 225.024 331.328 226.304 328.96l51.2-89.536c1.024-1.664 1.152-3.648 0.704-5.376-0.448-2.048-1.728-4.032-3.84-5.12C270.656 226.752 265.792 228.096 263.68 231.872L262.464 233.984 218.816 310.208 185.472 260.672C183.04 257.088 178.112 256.064 174.464 258.432 170.752 260.736 169.728 265.6 172.16 269.12l40.64 60.288C214.208 331.648 216.704 332.864 219.392 332.864zM219.392 478.08c0.128 0 0.128 0 0.256 0 2.816-0.064 5.312-1.6 6.656-3.968l51.2-89.536C279.68 380.864 278.272 376.128 274.432 374.016 270.656 371.968 265.792 373.312 263.68 377.024l-44.8 78.4L185.472 405.824C183.04 402.24 178.112 401.28 174.464 403.584 170.752 406.016 169.728 410.752 172.16 414.336l40.64 60.224C214.208 476.8 216.704 478.08 219.392 478.08zM219.392 623.232c0.128 0 0.128 0 0.256 0 2.816-0.128 5.312-1.472 6.656-4.032l51.2-89.472C279.68 526.016 278.272 521.344 274.432 519.232 270.656 517.184 265.792 518.528 263.68 522.24l-44.8 78.4L185.472 551.04C183.04 547.456 178.112 546.496 174.464 548.8 170.752 551.168 169.728 555.968 172.16 559.488l40.64 60.288C214.208 622.016 216.704 623.232 219.392 623.232zM219.392 768.448c0.128 0 0.128 0 0.256 0 2.816-0.128 5.312-1.536 6.656-4.032l51.2-89.408c2.112-3.776 0.704-8.512-3.072-10.56-3.84-2.176-8.64-0.768-10.752 2.944l-44.8 78.528-33.344-49.664c-2.432-3.648-7.36-4.48-11.008-2.176s-4.672 7.04-2.304 10.688l40.64 60.224C214.208 767.104 216.704 768.448 219.392 768.448zM1017.984 420.288l-101.824-57.6c-4.928-2.816-11.328-1.152-14.208 3.712l-55.36 93.248 119.872 67.776-12.288 20.608-3.328 5.76-6.784 11.264-34.368-19.136-49.28-27.584-36.928-20.672-33.856 57.024-97.728 164.736L609.728 857.6l18.688 10.56 0.768 0.384 0 0 101.312 57.344-57.088 34.048 96.64 0c10.752 0 19.584-8.512 19.584-19.136l0-114.688 163.84-275.776c0.384-0.704 0.512-1.472 0.768-2.304l67.648-113.92C1024.768 429.312 1022.976 423.04 1017.984 420.288zM832.768 482.112 823.744 497.28l9.6-15.872C833.216 481.664 832.96 481.856 832.768 482.112zM624.96 959.424l-17.856-10.048L606.72 959.936l0 0.128-0.96 30.784c-0.32 5.696 3.328 7.744 8.128 4.672l36.352-21.824-24.448-13.824L624.96 959.424z" fill="#272636"></path></g></g></svg>